<?xml version="1.0" standalone="no"?><!DOCTYPE svg PUBLIC "-//W3C//DTD SVG 1.1//EN" "http://www.w3.org/Graphics/SVG/1.1/DTD/svg11.dtd"><svg class="icon" width="200px" height="200.00px" viewBox="0 0 1024 1024" version="1.1" xmlns="http://www.w3.org/2000/svg"><path d="M512.3 89.2c-232.7 0-422 189.3-422 422s189.3 422 422 422 422-189.3 422-422-189.3-422-422-422z m0 787.7c-201.7 0-365.7-164.1-365.7-365.7s164.1-365.7 365.7-365.7S878 309.6 878 511.2 713.9 876.9 512.3 876.9z" fill="#e6e6e6" /><path d="M512.3 369.3c-15.5 0-28.1 12.6-28.1 28.1v383.7c0 15.5 12.6 28.1 28.1 28.1 15.5 0 28.1-12.6 28.1-28.1V397.4c0-15.6-12.6-28.1-28.1-28.1z" fill="#e6e6e6" /><path d="M512.3 301.1m-42.2 0a42.2 42.2 0 1 0 84.4 0 42.2 42.2 0 1 0-84.4 0Z" fill="#e6e6e6" /></svg>